<svg width="30" height="31" viewBox="0 0 30 31" fill="none" xmlns="http://www.w3.org/2000/svg">
<path fill-rule="evenodd" clip-rule="evenodd" d="M19.8642 4.26308C19.8642 7.59457 22.5689 10.2953 25.9052 10.2953C26.2726 10.2935 26.639 10.2582 27 10.1899V22.1489C27 27.1802 24.0322 30.1567 18.9936 30.1567H8.01954C2.96776 30.1567 0 27.1802 0 22.1489V11.1909C0 6.15967 2.96776 3.15674 8.01954 3.15674H19.9697C19.8988 3.52124 19.8635 3.89176 19.8642 4.26308ZM16.725 19.5016L21.0117 13.9699V13.9435C21.3787 13.4504 21.2851 12.755 20.8007 12.3762C20.5662 12.1952 20.2683 12.1169 19.975 12.1591C19.6817 12.2013 19.418 12.3604 19.2443 12.6001L15.6302 17.2494L11.5149 14.0094C11.2799 13.8263 10.9811 13.7455 10.6857 13.7852C10.3904 13.8248 10.1235 13.9816 9.94528 14.2201L5.51343 19.9362C5.35765 20.1304 5.27379 20.3723 5.27601 20.6211C5.25029 21.1239 5.56781 21.5806 6.04856 21.7324C6.52932 21.8842 7.05206 21.6927 7.32047 21.2664L11.0269 16.4723L15.1422 19.6991C15.3762 19.8878 15.6771 19.9734 15.9756 19.9361C16.2741 19.8989 16.5446 19.742 16.725 19.5016Z" fill="#CED4DA"/>
<ellipse opacity="0.4" cx="26.25" cy="3.90674" rx="3.75001" ry="3.75" fill="#CED4DA"/>
</svg>
