<svg width="24" height="24" viewBox="0 0 24 24" fill="none" xmlns="http://www.w3.org/2000/svg">
<path d="M9.52495 17.6568L4.57495 12.7068L5.98895 11.2928L9.52645 14.8263L9.52495 14.8278L18.01 6.34277L19.424 7.75677L10.939 16.2428L9.52595 17.6558L9.52495 17.6568Z" fill="#646F79"/>
<path d="M6 1H18V-1H6V1ZM23 6V18H25V6H23ZM18 23H6V25H18V23ZM1 18V6H-1V18H1ZM6 23C3.23858 23 1 20.7614 1 18H-1C-1 21.866 2.13401 25 6 25V23ZM23 18C23 20.7614 20.7614 23 18 23V25C21.866 25 25 21.866 25 18H23ZM18 1C20.7614 1 23 3.23858 23 6H25C25 2.13401 21.866 -1 18 -1V1ZM6 -1C2.13401 -1 -1 2.13401 -1 6H1C1 3.23858 3.23858 1 6 1V-1Z" fill="#646F79"/>
</svg>
