<svg width="65" height="52" viewBox="0 0 65 52" fill="none" xmlns="http://www.w3.org/2000/svg">
<circle cx="1.57495" cy="2" r="3" fill="#1591EA" fill-opacity="0.5"/>
<circle cx="13.575" cy="2" r="3" fill="#1591EA" fill-opacity="0.5"/>
<circle cx="25.575" cy="2" r="3" fill="#1591EA" fill-opacity="0.5"/>
<circle cx="37.575" cy="2" r="3" fill="#1591EA" fill-opacity="0.5"/>
<circle cx="49.575" cy="2" r="3" fill="#1591EA" fill-opacity="0.5"/>
<circle cx="61.575" cy="2" r="3" fill="#1591EA" fill-opacity="0.5"/>
<circle cx="1.57495" cy="14" r="3" fill="#1591EA" fill-opacity="0.5"/>
<circle cx="13.575" cy="14" r="3" fill="#1591EA" fill-opacity="0.5"/>
<circle cx="25.575" cy="14" r="3" fill="#1591EA" fill-opacity="0.5"/>
<circle cx="37.575" cy="14" r="3" fill="#1591EA" fill-opacity="0.5"/>
<circle cx="49.575" cy="14" r="3" fill="#1591EA" fill-opacity="0.5"/>
<circle cx="61.575" cy="14" r="3" fill="#1591EA" fill-opacity="0.5"/>
<circle cx="1.57495" cy="26" r="3" fill="#1591EA" fill-opacity="0.5"/>
<circle cx="13.575" cy="26" r="3" fill="#1591EA" fill-opacity="0.5"/>
<circle cx="25.575" cy="26" r="3" fill="#1591EA" fill-opacity="0.5"/>
<circle cx="37.575" cy="26" r="3" fill="#1591EA" fill-opacity="0.5"/>
<circle cx="49.575" cy="26" r="3" fill="#1591EA" fill-opacity="0.5"/>
<circle cx="61.575" cy="26" r="3" fill="#1591EA" fill-opacity="0.5"/>
<circle cx="1.57495" cy="37" r="3" fill="#1591EA" fill-opacity="0.5"/>
<circle cx="13.575" cy="37" r="3" fill="#1591EA" fill-opacity="0.5"/>
<circle cx="25.575" cy="37" r="3" fill="#1591EA" fill-opacity="0.5"/>
<circle cx="37.575" cy="37" r="3" fill="#1591EA" fill-opacity="0.5"/>
<circle cx="49.575" cy="37" r="3" fill="#1591EA" fill-opacity="0.5"/>
<circle cx="61.575" cy="37" r="3" fill="#1591EA" fill-opacity="0.5"/>
<circle cx="1.57495" cy="49" r="3" fill="#1591EA" fill-opacity="0.5"/>
<circle cx="13.575" cy="49" r="3" fill="#1591EA" fill-opacity="0.5"/>
<circle cx="25.575" cy="49" r="3" fill="#1591EA" fill-opacity="0.5"/>
<circle cx="37.575" cy="49" r="3" fill="#1591EA" fill-opacity="0.5"/>
<circle cx="49.575" cy="49" r="3" fill="#1591EA" fill-opacity="0.5"/>
<circle cx="61.575" cy="49" r="3" fill="#1591EA" fill-opacity="0.5"/>
</svg>
