<svg width="25" height="24" viewBox="0 0 25 24" fill="none" xmlns="http://www.w3.org/2000/svg">
<path fill-rule="evenodd" clip-rule="evenodd" d="M16.6798 2.50065C17.3108 2.50065 17.9408 2.58965 18.5398 2.79065C22.2308 3.99065 23.5608 8.04065 22.4498 11.5806C21.8198 13.3896 20.7898 15.0406 19.4408 16.3896C17.5098 18.2596 15.3908 19.9196 13.1098 21.3496L12.8598 21.5006L12.5998 21.3396C10.3108 19.9196 8.17979 18.2596 6.23079 16.3796C4.89079 15.0306 3.85979 13.3896 3.21979 11.5806C2.08979 8.04065 3.41979 3.99065 7.15079 2.76965C7.44079 2.66965 7.73979 2.59965 8.03979 2.56065H8.15979C8.44079 2.51965 8.71979 2.50065 8.99979 2.50065H9.10979C9.73979 2.51965 10.3498 2.62965 10.9408 2.83065H10.9998C11.0398 2.84965 11.0698 2.87065 11.0898 2.88965C11.3108 2.96065 11.5198 3.04065 11.7198 3.15065L12.0998 3.32065C12.1916 3.36962 12.2947 3.44445 12.3837 3.50912C12.4402 3.55009 12.491 3.58699 12.5298 3.61065C12.5461 3.62028 12.5627 3.62996 12.5794 3.63972C12.6652 3.68977 12.7545 3.74191 12.8298 3.79965C13.9408 2.95065 15.2898 2.49065 16.6798 2.50065ZM19.3398 9.70065C19.7498 9.68965 20.0998 9.36065 20.1298 8.93965V8.82065C20.1598 7.41965 19.3108 6.15065 18.0198 5.66065C17.6098 5.51965 17.1598 5.74065 17.0098 6.16065C16.8698 6.58065 17.0898 7.04065 17.5098 7.18965C18.1508 7.42965 18.5798 8.06065 18.5798 8.75965V8.79065C18.5608 9.01965 18.6298 9.24065 18.7698 9.41065C18.9098 9.58065 19.1198 9.67965 19.3398 9.70065Z" fill="#F31B6E"/>
</svg>
