<?xml version="1.0"?>
<svg xmlns="http://www.w3.org/2000/svg" xmlns:xlink="http://www.w3.org/1999/xlink" xmlns:svgjs="http://svgjs.com/svgjs" version="1.1" width="512" height="512" x="0" y="0" viewBox="0 0 24 24" style="enable-background:new 0 0 512 512" xml:space="preserve" class=""><g><g xmlns="http://www.w3.org/2000/svg"><path d="m17.5 24h-11c-.276 0-.5-.224-.5-.5v-21c0-1.378 1.122-2.5 2.5-2.5h7c1.378 0 2.5 1.122 2.5 2.5v21c0 .276-.224.5-.5.5zm-10.5-1h10v-20.5c0-.827-.673-1.5-1.5-1.5h-7c-.827 0-1.5.673-1.5 1.5z" fill="#3b71fe" data-original="#000000" style="" class=""/></g><g xmlns="http://www.w3.org/2000/svg"><path d="m22.5 24h-5c-.276 0-.5-.224-.5-.5s.224-.5.5-.5h5c.276 0 .5-.224.5-.5v-9.764c0-.571-.318-1.085-.829-1.341l-4.895-2.447c-.247-.124-.347-.424-.224-.671s.424-.346.671-.224l4.895 2.447c.853.427 1.382 1.283 1.382 2.236v9.764c0 .827-.673 1.5-1.5 1.5z" fill="#3b71fe" data-original="#000000" style="" class=""/></g><g xmlns="http://www.w3.org/2000/svg"><path d="m6.5 24h-5c-.827 0-1.5-.673-1.5-1.5v-9.764c0-.953.529-1.809 1.382-2.236l4.895-2.447c.247-.123.546-.024.67.223s.023.547-.224.671l-4.895 2.447c-.51.256-.828.771-.828 1.342v9.764c0 .276.224.5.5.5h5c.276 0 .5.224.5.5s-.224.5-.5.5z" fill="#3b71fe" data-original="#000000" style="" class=""/></g><g xmlns="http://www.w3.org/2000/svg"><path d="m10.5 8c-.276 0-.5-.224-.5-.5v-4c0-.276.224-.5.5-.5s.5.224.5.5v4c0 .276-.224.5-.5.5z" fill="#3b71fe" data-original="#000000" style="" class=""/></g><g xmlns="http://www.w3.org/2000/svg"><path d="m13.5 8c-.276 0-.5-.224-.5-.5v-4c0-.276.224-.5.5-.5s.5.224.5.5v4c0 .276-.224.5-.5.5z" fill="#3b71fe" data-original="#000000" style="" class=""/></g><g xmlns="http://www.w3.org/2000/svg"><path d="m13.5 6h-3c-.276 0-.5-.224-.5-.5s.224-.5.5-.5h3c.276 0 .5.224.5.5s-.224.5-.5.5z" fill="#3b71fe" data-original="#000000" style="" class=""/></g><g xmlns="http://www.w3.org/2000/svg"><path d="m14.5 24c-.276 0-.5-.224-.5-.5v-3.5c0-1.103-.897-2-2-2s-2 .897-2 2v3.5c0 .276-.224.5-.5.5s-.5-.224-.5-.5v-3.5c0-1.654 1.346-3 3-3s3 1.346 3 3v3.5c0 .276-.224.5-.5.5z" fill="#3b71fe" data-original="#000000" style="" class=""/></g><g xmlns="http://www.w3.org/2000/svg"><path d="m14.5 11h-5c-.276 0-.5-.224-.5-.5s.224-.5.5-.5h5c.276 0 .5.224.5.5s-.224.5-.5.5z" fill="#3b71fe" data-original="#000000" style="" class=""/></g><g xmlns="http://www.w3.org/2000/svg"><path d="m14.5 14h-5c-.276 0-.5-.224-.5-.5s.224-.5.5-.5h5c.276 0 .5.224.5.5s-.224.5-.5.5z" fill="#3b71fe" data-original="#000000" style="" class=""/></g><g xmlns="http://www.w3.org/2000/svg"><path d="m4.5 21h-2c-.276 0-.5-.224-.5-.5s.224-.5.5-.5h2c.276 0 .5.224.5.5s-.224.5-.5.5z" fill="#3b71fe" data-original="#000000" style="" class=""/></g><g xmlns="http://www.w3.org/2000/svg"><path d="m4.5 18h-2c-.276 0-.5-.224-.5-.5s.224-.5.5-.5h2c.276 0 .5.224.5.5s-.224.5-.5.5z" fill="#3b71fe" data-original="#000000" style="" class=""/></g><g xmlns="http://www.w3.org/2000/svg"><path d="m4.5 15h-2c-.276 0-.5-.224-.5-.5s.224-.5.5-.5h2c.276 0 .5.224.5.5s-.224.5-.5.5z" fill="#3b71fe" data-original="#000000" style="" class=""/></g><g xmlns="http://www.w3.org/2000/svg"><path d="m21.5 21h-2c-.276 0-.5-.224-.5-.5s.224-.5.5-.5h2c.276 0 .5.224.5.5s-.224.5-.5.5z" fill="#3b71fe" data-original="#000000" style="" class=""/></g><g xmlns="http://www.w3.org/2000/svg"><path d="m21.5 18h-2c-.276 0-.5-.224-.5-.5s.224-.5.5-.5h2c.276 0 .5.224.5.5s-.224.5-.5.5z" fill="#3b71fe" data-original="#000000" style="" class=""/></g><g xmlns="http://www.w3.org/2000/svg"><path d="m21.5 15h-2c-.276 0-.5-.224-.5-.5s.224-.5.5-.5h2c.276 0 .5.224.5.5s-.224.5-.5.5z" fill="#3b71fe" data-original="#000000" style="" class=""/></g><script/></g></svg>
