<?xml version="1.0"?>
<svg xmlns="http://www.w3.org/2000/svg" xmlns:xlink="http://www.w3.org/1999/xlink" xmlns:svgjs="http://svgjs.com/svgjs" version="1.1" width="512" height="512" x="0" y="0" viewBox="0 0 512 512" style="enable-background:new 0 0 512 512" xml:space="preserve" class=""><g><g xmlns="http://www.w3.org/2000/svg"><path d="m275.313 307.313 112-112c6.249-6.248 6.249-16.379 0-22.627-6.248-6.249-16.379-6.249-22.627 0l-100.686 100.686-52.687-52.686c-6.248-6.249-16.379-6.249-22.627 0-6.249 6.248-6.249 16.379 0 22.627l64 64c6.248 6.249 16.379 6.25 22.627 0z" fill="#3b71fe" data-original="#000000" style=""/><path d="m208 384h-17.61c-2.079-10.199-6.113-19.691-11.678-28.085l12.481-12.481c6.249-6.249 6.249-16.379 0-22.627-6.248-6.249-16.378-6.249-22.627 0l-12.481 12.481c-8.394-5.565-17.886-9.599-28.085-11.678v-17.61c0-8.836-7.164-16-16-16s-16 7.164-16 16v17.61c-10.199 2.079-19.691 6.113-28.085 11.678l-12.481-12.481c-6.249-6.249-16.379-6.249-22.627 0-6.249 6.248-6.249 16.379 0 22.627l12.481 12.481c-5.565 8.394-9.599 17.886-11.678 28.085h-17.61c-8.836 0-16 7.164-16 16s7.164 16 16 16h17.61c2.079 10.199 6.113 19.691 11.678 28.085l-12.481 12.481c-6.249 6.249-6.249 16.379 0 22.627 6.247 6.248 16.378 6.249 22.627 0l12.481-12.481c8.394 5.565 17.886 9.599 28.085 11.678v17.61c0 8.836 7.164 16 16 16s16-7.164 16-16v-17.61c10.199-2.079 19.691-6.113 28.085-11.678l12.481 12.481c6.248 6.248 16.379 6.25 22.627 0 6.249-6.248 6.249-16.379 0-22.627l-12.481-12.481c5.565-8.394 9.599-17.886 11.678-28.085h17.61c8.836 0 16-7.164 16-16s-7.164-16-16-16zm-50.671 31.759c-4.814 13.807-15.763 24.755-29.57 29.57-1.273-7.562-7.835-13.329-15.759-13.329s-14.486 5.767-15.759 13.329c-13.807-4.814-24.755-15.762-29.57-29.57 7.562-1.273 13.329-7.835 13.329-15.759s-5.767-14.486-13.329-15.76c4.814-13.807 15.763-24.755 29.57-29.57 1.273 7.563 7.835 13.33 15.759 13.33s14.486-5.767 15.759-13.329c13.807 4.814 24.755 15.762 29.57 29.57-7.562 1.273-13.329 7.834-13.329 15.759s5.767 14.486 13.329 15.759z" fill="#3b71fe" data-original="#000000" style=""/><path d="m288 512c-1.207 0-2.414-.137-3.598-.41-18.457-4.259-36.505-10.363-53.644-18.141-8.047-3.651-11.61-13.135-7.958-21.182 3.651-8.046 13.135-11.611 21.182-7.958 14.093 6.396 28.883 11.516 44.02 15.242 113.24-27.835 191.998-128.065 191.998-245.021v-157.802l-192-44.308-192 44.308v157.802c0 10.251.626 20.569 1.862 30.667 1.073 8.771-5.168 16.751-13.939 17.825-8.769 1.07-16.751-5.168-17.824-13.939-1.393-11.383-2.099-23.008-2.099-34.553v-170.53c0-7.451 5.143-13.915 12.402-15.59l208-48c2.367-.546 4.828-.546 7.195 0l208 48c7.26 1.675 12.403 8.139 12.403 15.59v170.53c0 64.039-21.956 126.905-61.823 177.019-39.865 50.112-96.183 85.641-158.579 100.042-1.183.272-2.391.409-3.598.409z" fill="#3b71fe" data-original="#000000" style=""/></g><script/></g></svg>
