<svg width="31" height="30" viewBox="0 0 31 30" fill="none" xmlns="http://www.w3.org/2000/svg">
<path fill-rule="evenodd" clip-rule="evenodd" d="M4.11035 8.125C4.11035 4.84348 4.14549 3.75 8.48535 3.75C12.8252 3.75 12.8604 4.84348 12.8604 8.125C12.8604 11.4065 12.8742 12.5 8.48535 12.5C4.09651 12.5 4.11035 11.4065 4.11035 8.125Z" stroke="#130F26" stroke-width="1.5" stroke-linecap="round" stroke-linejoin="round"/>
<path fill-rule="evenodd" clip-rule="evenodd" d="M17.8604 8.125C17.8604 4.84348 17.8955 3.75 22.2354 3.75C26.5752 3.75 26.6104 4.84348 26.6104 8.125C26.6104 11.4065 26.6242 12.5 22.2354 12.5C17.8465 12.5 17.8604 11.4065 17.8604 8.125Z" stroke="#130F26" stroke-width="1.5" stroke-linecap="round" stroke-linejoin="round"/>
<path fill-rule="evenodd" clip-rule="evenodd" d="M4.11035 21.875C4.11035 18.5935 4.14549 17.5 8.48535 17.5C12.8252 17.5 12.8604 18.5935 12.8604 21.875C12.8604 25.1565 12.8742 26.25 8.48535 26.25C4.09651 26.25 4.11035 25.1565 4.11035 21.875Z" stroke="#130F26" stroke-width="1.5" stroke-linecap="round" stroke-linejoin="round"/>
<path fill-rule="evenodd" clip-rule="evenodd" d="M17.8604 21.875C17.8604 18.5935 17.8955 17.5 22.2354 17.5C26.5752 17.5 26.6104 18.5935 26.6104 21.875C26.6104 25.1565 26.6242 26.25 22.2354 26.25C17.8465 26.25 17.8604 25.1565 17.8604 21.875Z" stroke="#130F26" stroke-width="1.5" stroke-linecap="round" stroke-linejoin="round"/>
</svg>
