<svg width="33" height="32" viewBox="0 0 33 32" fill="none" xmlns="http://www.w3.org/2000/svg"><path d="M27.94-.000168h-22C3.17858-.000168.940002 2.23841.940002 4.99983V26.9998c0 2.7615 2.238578 5 4.999998 5h22c2.7614 0 5-2.2385 5-5V4.99983c0-2.76142-2.2386-4.999998-5-4.999998z" fill="#1877F2"/><g clip-path="url(#clip0)"><path d="M19.9377 9.98857h1.6433v-2.862c-.2835-.039-1.2585-.12675-2.394-.12675-2.3693 0-3.9923 1.49025-3.9923 4.22928v2.5207h-2.6145v3.1995h2.6145v8.0505h3.2055v-8.0497h2.5088l.3982-3.1995h-2.9077v-2.2043c.0007-.9247.2497-1.55773 1.5382-1.55773z" fill="#fff"/></g><defs><clipPath id="clip0"><path fill="#fff" transform="translate(7.94 6.99983)" d="M0 0h18v18H0z"/></clipPath></defs></svg>