<svg width="33" height="32" viewBox="0 0 33 32" fill="none" xmlns="http://www.w3.org/2000/svg"><path d="M27.1196 0H5.11963C2.35821 0 .119629 2.23858.119629 5v22c0 2.7614 2.238581 5 5.000001 5H27.1196c2.7615 0 5-2.2386 5-5V5c0-2.76142-2.2385-5-5-5z" fill="#001935"/><path d="M23.1296 12.0122c-.9131 0-1.7556-.3025-2.4322-.8128-.7759-.585-1.3334-1.44316-1.5303-2.43222-.0487-.24438-.075-.49657-.0775-.755h-2.6084v7.12752l-.0031 3.904c0 1.0438-.6797 1.9288-1.6219 2.24-.2734.0904-.5688.1332-.8763.1163-.3925-.0216-.7603-.14-1.08-.3313-.6803-.4068-1.1415-1.145-1.154-1.9893-.0197-1.3197 1.0472-2.3957 2.3659-2.3957.2603 0 .5103.0425.7444.1197V14.155c-.2469-.0366-.4981-.0556-.7522-.0556-1.4434 0-2.7934.6-3.7584 1.6809-.7294.8169-1.1669 1.8591-1.2344 2.9519-.08844 1.4356.43687 2.8003 1.4556 3.8072.1497.1478.3069.285.4713.4115.8734.6722 1.9412 1.0366 3.0659 1.0366.2541 0 .5053-.0188.7522-.0553 1.0506-.1556 2.02-.6366 2.785-1.3928.94-.9291 1.4594-2.1625 1.465-3.4753l-.0134-5.83c.4484.3459.9387.6321 1.465.8543.8184.3453 1.6862.5203 2.5793.52v-2.5968c.0007.0006-.0068.0006-.0075.0006z" fill="#fff"/></svg>