<svg width="33" height="32" viewBox="0 0 33 32" fill="none" xmlns="http://www.w3.org/2000/svg"><path d="M27.2396 0H5.23962C2.4782 0 .239624 2.23858.239624 5v22c0 2.7614 2.238576 5 4.999996 5H27.2396c2.7614 0 5-2.2386 5-5V5c0-2.76142-2.2386-5-5-5z" fill="#00AF87"/><g clip-path="url(#clip0)" fill="#fff"><path d="M18.4956 10.2603c.5582.0789 1.1048.2191 1.645.3851.9429.2904 1.8327.6938 2.6695 1.2171.0582.0361.1359.059.2045.059.9829.0041 1.9654.0027 2.9475.0035.0791 0 .1578.0083.2368.0127 0 .0193.0028.0274-.0004.0319-.0459.0706-.0924.1402-.1384.2106-.3334.5114-.6183 1.0462-.7865 1.6375-.0183.0635-.0221.1167.0209.179.8749 1.2564 1.1541 2.6358.7885 4.1227-.3206 1.3041-1.0681 2.3209-2.204 3.0408-.8118.5148-1.7087.7599-2.6668.7652-.4026.0024-.8032-.0518-1.1964-.1536-.9581-.2486-1.7795-.7262-2.4564-1.4496-.0893-.095-.1733-.1942-.2685-.3015-.3579.5334-.7102 1.0581-1.0709 1.5967-.3594-.5369-.7068-1.0566-1.0533-1.5742-.024.0126-.0309.014-.0356.0184-.0079.0065-.0146.0144-.0209.022-.8187.9668-1.8487 1.5595-3.1035 1.7578-.698.1105-1.3893.0708-2.06721-.1161-.96078-.264-1.77729-.7709-2.43695-1.5188-.64464-.7313-1.04559-1.5802-1.19615-2.5455-.17227-.9009.03754-1.7696.08989-1.9804.15177-.6128.41637-1.1754.77958-1.6929.02556-.0367.03449-.1016.02232-.1454-.14813-.5432-.40339-1.0373-.70227-1.5105-.07589-.1203-.1668-.2317-.2508-.3472v-.0402c.01684.0021.03348.0053.04991.0053 1.00563.0004 2.01105.0008 3.01667-.0012.04383 0 .09252-.0181.12986-.042.70655-.4533 1.45935-.8125 2.25025-1.0921.5704-.2013 1.1528-.3583 1.7467-.4734.575-.1111 1.1531-.1895 1.7373-.228 1.4242-.1096 2.5625.0412 3.3198.1473zm-1.2607 6.6414c0 2.2083 1.7917 4.0124 3.9921 4.0038 2.2086-.0079 3.9922-1.7612 3.9906-3.9938-.0016-2.3008-1.868-4.0304-4.0763-3.9856-2.18.0453-3.8865 1.8025-3.9064 3.9756zm-5.9881-3.9908c-2.14797-.0187-4.02082 1.774-3.98329 4.0576.0349 2.1295 1.79008 3.9348 4.02799 3.9155 2.1882-.0186 3.947-1.8055 3.951-3.9693.0035-2.2231-1.7768-4.0038-3.9957-4.0038zm.1981-1.0417c1.2134.074 2.2793.4969 3.1798 1.3158.8987.8174 1.4252 1.837 1.6166 3.036.1968-1.1848.7095-2.1949 1.5914-3.0041.8833-.81 1.9349-1.2351 3.1285-1.325-1.4164-.6296-2.9098-.8971-4.447-.9267-1.7471-.0343-3.4464.2232-5.0693.904z"/><path d="M21.2188 14.3824c1.3666-.0022 2.4735 1.0988 2.4735 2.4639 0 1.3705-1.088 2.4299-2.3716 2.4788-1.4336.0549-2.5806-1.0872-2.5802-2.4727.0012-1.4013 1.1564-2.4931 2.4783-2.47zm1.6119 2.47c-.0006-.8908-.7207-1.6147-1.6054-1.6147-.8948 0-1.6233.7201-1.6269 1.6082-.0033.8843.7288 1.62 1.6153 1.6225.888.0034 1.6174-.7268 1.617-1.616zM11.1941 14.3824c1.3658-.0014 2.4742 1.1016 2.4708 2.4666-.0039 1.3816-1.0929 2.4178-2.354 2.4753-1.43919.0657-2.60044-1.0815-2.5978-2.4745.00284-1.4113 1.16592-2.4909 2.481-2.4674zm1.6101 2.4645c-.0027-.8962-.7275-1.6107-1.6322-1.609-.8728.0016-1.60404.7382-1.60201 1.6141.00223.8861.73271 1.6148 1.62161 1.6172.8835.002 1.6148-.7337 1.6126-1.6223z"/><path d="M21.2201 16.0325c.4529-.0004.8242.3711.8199.8214-.0044.4512-.3695.8169-.8149.8171-.4585 0-.8272-.3624-.8262-.8115.0008-.4659.3589-.8266.8212-.827zM11.1898 16.0252c.4598-.0004.8293.3668.8311.8252.0019.4545-.3711.8277-.8286.8287-.4686.001-.83-.361-.8295-.832 0-.4624.3605-.8213.827-.8219z"/></g><defs><clipPath id="clip0"><path fill="#fff" transform="translate(6.23962 6)" d="M0 0h20v20H0z"/></clipPath></defs></svg>