<svg width="25" height="24" viewBox="0 0 25 24" fill="none" xmlns="http://www.w3.org/2000/svg">
<path fill-rule="evenodd" clip-rule="evenodd" d="M15.0424 7.76241C15.0424 10.4062 12.879 12.5248 10.1793 12.5248C7.48071 12.5248 5.31632 10.4062 5.31632 7.76241C5.31632 5.11865 7.48071 3 10.1793 3C12.879 3 15.0424 5.11865 15.0424 7.76241ZM2.83002 17.9174C2.83002 15.47 6.21554 14.8577 10.1793 14.8577C14.1647 14.8577 17.5287 15.4911 17.5287 17.9404C17.5287 20.3877 14.1432 21 10.1793 21C6.19402 21 2.83002 20.3666 2.83002 17.9174ZM17.0034 7.84875C17.0034 9.19506 16.5905 10.4513 15.8664 11.4948C15.7911 11.6021 15.8576 11.7468 15.9888 11.7698C16.1708 11.7995 16.3576 11.8177 16.5484 11.8216C18.4467 11.8704 20.1502 10.6736 20.6209 8.87118C21.3185 6.19676 19.2715 3.79543 16.6639 3.79543C16.3811 3.79543 16.1101 3.82418 15.8459 3.87688C15.8097 3.88454 15.7706 3.90179 15.751 3.93246C15.7255 3.97174 15.7441 4.02253 15.7696 4.05607C16.5533 5.13216 17.0034 6.44206 17.0034 7.84875ZM20.1473 13.7023C21.4232 13.9466 22.2618 14.444 22.6091 15.1694C22.9036 15.7635 22.9036 16.4534 22.6091 17.0475C22.0778 18.1705 20.3635 18.5318 19.6972 18.6247C19.5592 18.6439 19.4486 18.5289 19.4633 18.3928C19.8038 15.2805 17.0964 13.8048 16.3958 13.4656C16.3664 13.4493 16.3596 13.4263 16.3625 13.411C16.3645 13.4014 16.3772 13.3861 16.3997 13.3832C17.9154 13.3545 19.5455 13.5586 20.1473 13.7023Z" fill="#646F79"/>
</svg>
