<svg width="20" height="21" viewBox="0 0 20 21" fill="none" xmlns="http://www.w3.org/2000/svg">
<g id="Iconly/Bold/Logout">
<g id="Logout">
<path id="Logout_2" fill-rule="evenodd" clip-rule="evenodd" d="M8.24621 9.85829C7.88162 9.85829 7.59335 10.1416 7.59335 10.5C7.59335 10.85 7.88162 11.1416 8.24621 11.1416H13.3334V15.125C13.3334 17.1666 11.6462 18.8333 9.5604 18.8333H5.43128C3.35401 18.8333 1.66675 17.175 1.66675 15.1333V5.87496C1.66675 3.82496 3.36248 2.16663 5.43976 2.16663H9.57736C11.6462 2.16663 13.3334 3.82496 13.3334 5.86663V9.85829H8.24621ZM16.3586 7.6168L18.7919 10.0418C18.9169 10.1668 18.9836 10.3251 18.9836 10.5001C18.9836 10.6668 18.9169 10.8335 18.7919 10.9501L16.3586 13.3751C16.2336 13.5001 16.0669 13.5668 15.9086 13.5668C15.7419 13.5668 15.5752 13.5001 15.4502 13.3751C15.2002 13.1251 15.2002 12.7168 15.4502 12.4668L16.7836 11.1418H13.3336V9.85846H16.7836L15.4502 8.53346C15.2002 8.28346 15.2002 7.87513 15.4502 7.62513C15.7002 7.3668 16.1086 7.3668 16.3586 7.6168Z" fill="#F2F5F8"/>
</g>
</g>
</svg>
