<svg width="22" height="22" viewBox="0 0 22 22" fill="none" xmlns="http://www.w3.org/2000/svg">
<g id="Iconly/Bold/Send">
<g id="Send">
<path id="Send_2" d="M18.6491 3.36686C18.1906 2.89626 17.512 2.72093 16.8792 2.90548L2.12401 7.19627C1.4564 7.38174 0.983207 7.91417 0.855738 8.59055C0.725518 9.27892 1.18037 10.1528 1.77461 10.5182L6.38825 13.3538C6.86145 13.6444 7.4722 13.5716 7.86377 13.1766L13.1469 7.86065C13.4128 7.58383 13.853 7.58383 14.1189 7.86065C14.3849 8.12825 14.3849 8.56194 14.1189 8.83877L8.82667 14.1557C8.43417 14.5497 8.36081 15.1633 8.64968 15.6394L11.4687 20.2993C11.7988 20.853 12.3674 21.1667 12.991 21.1667C13.0643 21.1667 13.1469 21.1667 13.2202 21.1575C13.9355 21.0652 14.5041 20.5761 14.715 19.8841L19.0893 5.14777C19.2819 4.5203 19.1076 3.83746 18.6491 3.36686Z" fill="#F2F5F8"/>
</g>
</g>
</svg>
