<svg width="33" height="32" viewBox="0 0 33 32" fill="none" xmlns="http://www.w3.org/2000/svg"><path d="M27.0596 0H5.05963C2.29821 0 .059631 2.23858.059631 5v22c0 2.7614 2.238579 5 4.999999 5H27.0596c2.7615 0 5-2.2386 5-5V5c0-2.76142-2.2385-5-5-5z" fill="#878787"/><path d="M16.0596 9.2h3.4c.8 0 1.2.2 1.5.3.4.2.7.3 1 .6.3.3.5.6.6 1 .1.3.2.7.3 1.5v6.8c0 .8-.2 1.2-.3 1.5-.2.4-.3.7-.6 1-.3.3-.6.5-1 .6-.3.1-.7.2-1.5.3h-6.8c-.8 0-1.2-.2-1.5-.3-.4-.2-.7-.3-1-.6-.29997-.3-.49997-.6-.59997-1-.1-.3-.2-.7-.3-1.5V16v-3.4c0-.8.2-1.2.3-1.5.2-.4.3-.7.59997-1 .3-.3.6-.5 1-.6.3-.1.7-.2 1.5-.3h3.4zm0-1.5h-3.4c-.9 0-1.5.2-2 .4s-.99997.5-1.49997 1-.7.9-1 1.5c-.2.5-.3 1.1-.4 2v6.8c0 .9.2 1.5.4 2s.5 1 1 1.5.89997.7 1.49997 1c.5.2 1.1.3 2 .4h6.8c.9 0 1.5-.2 2-.4s1-.5 1.5-1 .7-.9 1-1.5c.2-.5.3-1.1.4-2V16v-3.4c0-.9-.2-1.5-.4-2s-.5-1-1-1.5-.9-.7-1.5-1c-.5-.2-1.1-.3-2-.4h-3.4z" fill="#fff"/><path d="M16.0596 11.7c-2.4 0-4.3 1.9-4.3 4.3s1.9 4.3 4.3 4.3 4.3-1.9 4.3-4.3-1.9-4.3-4.3-4.3zm0 7.1c-1.5 0-2.8-1.2-2.8-2.8 0-1.5 1.2-2.8 2.8-2.8 1.5 0 2.8 1.2 2.8 2.8 0 1.5-1.3 2.8-2.8 2.8zM20.4596 12.6c.5523 0 1-.4477 1-1s-.4477-1-1-1-1 .4477-1 1 .4477 1 1 1z" fill="#fff"/></svg>