<svg width="33" height="32" viewBox="0 0 33 32" fill="none" xmlns="http://www.w3.org/2000/svg"><path d="M27.1796 0H5.17963C2.4182 0 .179626 2.23858.179626 5v22c0 2.7614 2.238574 5 5.000004 5H27.1796c2.7614 0 5-2.2386 5-5V5c0-2.76142-2.2386-5-5-5z" fill="#878787"/><g clip-path="url(#clip0)"><path d="M23.7343 18.6318c.288-.8246.4452-1.7101.4452-2.6318 0-.9217-.1572-1.8073-.4452-2.6319-.0071-.0248-.0154-.0489-.0255-.0722-1.1111-3.0844-4.0665-5.29589-7.5291-5.29589S9.76157 10.2115 8.6505 13.2959c-.0101.0233-.01851.0474-.02546.0722-.28808.8246-.44526 1.7102-.44526 2.6319s.15718 1.8072.44526 2.6318c.00703.0248.01536.049.02546.0722 1.11115 3.0846 4.0666 5.2959 7.5292 5.2959s6.418-2.2114 7.5291-5.2959c.0101-.0232.0184-.0473.0255-.0722zm-7.5546 4.2214c-.3047 0-.7959-.5513-1.2065-1.7831-.1981-.5945-.3568-1.2778-.4724-2.0211h3.3577c-.1156.7433-.2743 1.4266-.4724 2.0211-.4106 1.2318-.9018 1.7831-1.2064 1.7831zm-1.818-4.951c-.0551-.6115-.0842-1.2494-.0842-1.9022 0-.6529.0291-1.2908.0842-1.9022h3.6358c.0552.6114.0843 1.2493.0843 1.9022 0 .6528-.0291 1.2907-.0843 1.9022h-3.6358zM9.32649 16c0-.6597.09395-1.298.2688-1.9022h3.61621c-.0536.6241-.0808 1.2637-.0808 1.9022 0 .6386.0271 1.2782.0808 1.9023H9.59529c-.17485-.6043-.2688-1.2425-.2688-1.9023zm6.85321-6.85321c.3046 0 .7959.55137 1.2064 1.78321.1981.5944.3569 1.2777.4724 2.021h-3.3577c.1156-.7434.2742-1.4266.4724-2.021.4106-1.23184.9018-1.78321 1.2065-1.78321zm2.9681 4.95101h3.6161c.1749.6042.2689 1.2425.2689 1.9022 0 .6598-.094 1.2981-.2689 1.9023h-3.6161c.0536-.6241.0808-1.2637.0808-1.9023 0-.6385-.0272-1.2781-.0808-1.9022zm3.1681-1.1467h-3.2997c-.204-1.4065-.5539-2.6684-1.0448-3.56608 1.9033.51597 3.4801 1.83328 4.3445 3.56608zm-7.9281-3.56616c-.4909.89766-.8408 2.15956-1.0447 3.56616h-3.2997c.8644-1.7328 2.4412-3.05011 4.3444-3.56616zM10.0434 19.049h3.2997c.2039 1.4065.5538 2.6683 1.0447 3.5661-1.9032-.5161-3.48-1.8333-4.3444-3.5661zm7.928 3.5661c.4909-.8977.8408-2.1596 1.0448-3.5661h3.2997c-.8644 1.7328-2.4412 3.05-4.3445 3.5661z" fill="#fff"/></g><defs><clipPath id="clip0"><path fill="#fff" transform="translate(8.17963 8)" d="M0 0h16v16H0z"/></clipPath></defs></svg>