<?xml version="1.0" encoding="iso-8859-1"?>
<!-- Generator: Adobe Illustrator 19.0.0, SVG Export Plug-In . SVG Version: 6.00 Build 0)  -->
<svg version="1.1" id="Capa_1" xmlns="http://www.w3.org/2000/svg" xmlns:xlink="http://www.w3.org/1999/xlink" x="0px" y="0px"
	 viewBox="0 0 504.242 504.242" style="enable-background:new 0 0 504.242 504.242;" xml:space="preserve">
<path style="fill:#2EA2DB;" d="M250.958,504.242C114.424,504.242,2.715,392.533,2.715,256S114.424,7.758,250.958,7.758
	S499.2,119.467,499.2,256S388.267,504.242,250.958,504.242z"/>
<g>
	<rect x="115.2" y="276.17" style="fill:#193651;" width="15.515" height="15.515"/>
	<rect x="164.848" y="276.17" style="fill:#193651;" width="15.515" height="15.515"/>
	<rect x="215.273" y="276.17" style="fill:#193651;" width="15.515" height="15.515"/>
</g>
<path style="fill:#FFFFFF;" d="M455.758,444.509h-85.333c-20.17,0-37.236,16.291-37.236,37.236v15.515h159.03v-15.515
	C492.994,460.8,476.703,444.509,455.758,444.509z"/>
<g>
	<path style="fill:#193651;" d="M492.994,504.242h-159.03c-4.655,0-7.758-3.103-7.758-7.758V480.97
		c0-24.824,20.17-44.994,44.994-44.994h85.333c24.824,0,44.994,20.17,44.994,44.994v15.515
		C500.752,500.364,496.873,504.242,492.994,504.242z M341.721,488.727h143.515v-7.758c0-16.291-13.188-29.479-29.479-29.479h-85.333
		c-16.291,0-29.479,13.188-29.479,29.479v7.758H341.721z"/>
	<path style="fill:#193651;" d="M413.091,452.267c-4.655,0-7.758-3.103-7.758-7.758V154.376c0-43.442-35.685-79.127-79.127-79.127
		H219.927c-4.655,0-7.758-3.103-7.758-7.758c0-4.655,3.103-7.758,7.758-7.758h107.055c51.976,0,94.642,42.667,94.642,94.642v290.133
		C420.849,448.388,417.745,452.267,413.091,452.267z"/>
</g>
<path style="fill:#FFFFFF;" d="M219.927,86.109h-94.642C86.497,103.952,58.57,143.515,58.57,189.285h227.297
	C286.642,143.515,259.491,103.952,219.927,86.109z"/>
<path style="fill:#193651;" d="M223.03,79.127c-0.776-0.776-2.327-0.776-3.103-0.776h-94.642c-0.776,0-2.327,0-3.103,0.776
	c-43.442,20.17-70.594,62.836-70.594,110.158c0,4.655,3.103,7.758,7.758,7.758h227.297c4.655,0,7.758-3.103,7.758-7.758
	C294.4,141.964,266.473,98.521,223.03,79.127z M67.103,181.527c3.103-37.236,25.6-71.37,59.733-87.661h91.539
	c34.133,16.291,57.406,50.424,59.733,87.661H67.103z"/>
<g>
	<path style="fill:#E1E6E9;" d="M95.806,158.255c6.982-17.067,20.17-31.806,36.461-41.115h80.679
		c17.067,9.309,29.479,24.048,36.461,41.115H95.806z"/>
	<path style="fill:#E1E6E9;" d="M172.606,7.758c-26.376,0-47.321,20.945-47.321,47.321v31.03h94.642v-31.03
		C219.927,28.703,198.982,7.758,172.606,7.758z"/>
</g>
<path style="fill:#193651;" d="M172.606,0c-30.255,0-55.079,24.824-55.079,55.079v31.03c0,4.655,3.103,7.758,7.758,7.758h94.642
	c4.655,0,7.758-3.103,7.758-7.758v-31.03C227.685,24.824,202.861,0,172.606,0z M212.17,78.352h-79.127V55.079
	c0-21.721,17.842-39.564,39.564-39.564s39.564,17.842,39.564,39.564L212.17,78.352L212.17,78.352z"/>
<path style="fill:#FDBF5E;" d="M122.958,189.285c0,27.927,22.497,49.648,49.648,49.648c27.927,0,49.648-22.497,49.648-49.648
	H122.958z"/>
<path style="fill:#193651;" d="M172.606,246.691c-31.806,0-57.406-25.6-57.406-58.182c0-4.655,3.103-7.758,7.758-7.758H223.03
	c4.655,0,7.758,3.103,7.758,7.758C230.788,221.091,204.412,246.691,172.606,246.691z M130.715,197.042
	c3.879,19.394,20.945,34.909,41.891,34.909s38.012-14.739,41.891-34.909H130.715z"/>
<path style="fill:#FFFFFF;" d="M305.261,422.012L305.261,422.012h-256c-20.945,0-37.236,17.067-37.236,37.236l0,0
	c0,20.945,17.067,37.236,37.236,37.236h256l0,0c-20.17,0-37.236-17.067-37.236-37.236l0,0
	C268.024,439.079,284.315,422.012,305.261,422.012z"/>
<g>
	<path style="fill:#193651;" d="M305.261,504.242h-256c-24.824,0-44.994-20.17-44.994-44.994s20.17-44.994,44.994-44.994h256
		c4.655,0,7.758,3.103,7.758,7.758c0,3.879-3.103,7.758-7.758,7.758c-16.291,0-29.479,13.188-29.479,29.479
		s13.188,29.479,29.479,29.479c3.879,0,7.758,3.879,7.758,7.758C313.018,501.139,309.139,504.242,305.261,504.242z M49.261,429.77
		c-16.291,0-29.479,13.188-29.479,29.479s13.188,29.479,29.479,29.479h222.642c-6.982-7.758-10.861-18.618-10.861-29.479
		c0-11.636,3.879-21.721,10.861-29.479H49.261z"/>
	<path style="fill:#193651;" d="M268.024,467.006H49.261c-4.655,0-7.758-3.103-7.758-7.758s3.103-7.758,7.758-7.758H268.8
		c4.655,0,7.758,3.103,7.758,7.758C275.782,463.903,272.679,467.006,268.024,467.006z"/>
</g>
<path style="fill:#FDBF5E;" d="M305.261,347.539L305.261,347.539h-256c-20.945,0-37.236,17.067-37.236,37.236l0,0
	c0,20.945,17.067,37.236,37.236,37.236h256l0,0c-20.17,0-37.236-17.067-37.236-37.236l0,0
	C268.024,364.606,284.315,347.539,305.261,347.539z"/>
<path style="fill:#193651;" d="M305.261,429.77h-256c-24.824,0-44.994-20.17-44.994-44.994s20.17-44.994,44.994-44.994h256
	c4.655,0,7.758,3.103,7.758,7.758s-3.103,7.758-7.758,7.758l0,0l0,0h-0.776c-15.515,0.776-28.703,13.964-28.703,29.479
	c0,16.291,13.188,29.479,29.479,29.479c4.655,0,7.758,3.879,7.758,7.758C313.018,426.667,309.139,429.77,305.261,429.77z
	 M49.261,355.297c-16.291,0-29.479,13.188-29.479,29.479s13.188,29.479,29.479,29.479h222.642
	c-6.982-7.758-10.861-18.618-10.861-29.479s3.879-21.721,10.861-29.479H49.261z"/>
<polygon style="fill:#F16051;" points="164.073,449.164 144.679,431.321 124.509,449.164 124.509,384.776 164.073,384.776 "/>
<path style="fill:#193651;" d="M268.024,392.533H49.261c-4.655,0-7.758-3.103-7.758-7.758s3.103-7.758,7.758-7.758H268.8
	c4.655,0,7.758,3.103,7.758,7.758C275.782,388.655,272.679,392.533,268.024,392.533z"/>
<g>
</g>
<g>
</g>
<g>
</g>
<g>
</g>
<g>
</g>
<g>
</g>
<g>
</g>
<g>
</g>
<g>
</g>
<g>
</g>
<g>
</g>
<g>
</g>
<g>
</g>
<g>
</g>
<g>
</g>
</svg>
