<svg id="Capa_1" enable-background="new 0 0 512 512" height="512" viewBox="0 0 512 512" width="512" xmlns="http://www.w3.org/2000/svg"><g><g><path d="m466 393.247c22.214-36.871 35-80.064 35-126.247 0-135.31-109.69-245-245-245s-245 109.69-245 245c0 46.183 12.786 89.376 35 126.247z" fill="#4fabf7"/></g><g><path d="m256 222.553-210 40v130.694c9.27 15.387 20.187 29.67 32.5 42.611l11.181 2.802 4.483 12.266c20.388 17.955 43.783 32.573 69.336 43l7.883-3.351 7.117 8.905c22.101 7.365 45.601 11.669 70 12.403l7.5-4.286 7.5 4.286c24.399-.734 47.899-5.037 70-12.403l7.117-8.905 7.883 3.351c25.552-10.428 48.948-25.045 69.336-43l4.483-12.266 11.181-2.802c12.313-12.941 23.23-27.223 32.5-42.611v-130.694z" fill="#2d3c6b"/></g><g><path d="m89.681 438.66 4.483 12.266c20.388 17.955 43.783 32.573 69.336 43l7.883-3.351 7.117 8.905c22.101 7.365 45.601 11.669 70 12.403l7.5-4.286 7.5 4.286c24.399-.734 47.899-5.037 70-12.403l7.117-8.905 7.883 3.351c25.552-10.428 48.948-25.045 69.336-43l4.483-12.266 11.181-2.802c12.313-12.941 23.23-27.223 32.5-42.611h-160c-66.274 0-120-53.726-120-120v-37.361l-140 26.667v130.694c9.27 15.387 20.187 29.67 32.5 42.611z" fill="#222d5b"/></g><g><g><g><path d="m131.894 142.83 49.341 3.509 67.618-18.107 21.254-23.19 46.364 5.083 67.618-18.107 12.997-21.584h49.431c1.762-3.254 2.342-7.156 1.31-11.012l-12.934-48.298c-2.143-8.002-10.367-12.752-18.37-10.609l-53.128 14.227-16.011 18.107h-51.606l-67.618 18.107-23.755 18.107h-43.863l-67.618 18.106-15.158 21.584h-47.27c-1.762 3.254-2.342 7.156-1.31 11.012l16.814 62.788 67.618-18.107z" fill="#3c5082"/></g><g><path d="m131.894 142.83 23.313 1.658c-10.91-4.659-19.651-14.093-22.957-26.441-5.714-21.339 6.952-43.271 28.292-48.985l-67.618 18.107-15.158 21.584h-47.27c-1.762 3.254-2.342 7.156-1.31 11.012l16.814 62.788 67.618-18.107z" fill="#2d3c6b"/></g><g><path d="m39.796 101.396c-4.146 1.11-7.406 3.859-9.3 7.357l83.122 55.693 67.618-18.107-88.311-59.17z" fill="#e9efff"/></g><g><path d="m160.542 69.062 67.617-18.107 88.311 59.17-67.617 18.107z" fill="#e9efff"/></g><g><path d="m446.516 70.434-83.122-55.693-67.618 18.107 88.311 59.17 53.128-14.227c4.147-1.11 7.407-3.859 9.301-7.357z" fill="#e9efff"/></g><g><path d="m132.25 118.047c-.465-1.738-.796-3.479-1.023-5.215l-38.303-25.663-53.128 14.227c-4.146 1.11-7.406 3.859-9.3 7.357l83.122 55.693 67.618-18.107c-21.34 5.715-43.272-6.952-48.986-28.292z" fill="#dae2fe"/></g></g><g><g><g><path d="m421.596 195.596-25.596-13.043h-70l-48.064 13.042-21.936-13.042h-70l-43.553 18.83-26.447-18.83h-70v80l45.723-12.489 24.277 12.489h70l46.66-9.426 23.34 9.426h70l45.146-12.489 24.854 12.489h70v-65c0-3.993-1.57-7.611-4.114-10.299z" fill="#3c5082"/></g><g><path d="" fill="#3c5082"/></g></g><g><g><path d="m146 222.553c0-10.612 4.14-20.252 10.884-27.412l-14.437 6.242-26.447-18.83h-70v80l45.723-12.489 24.277 12.489h70c-22.091 0-40-17.908-40-40z" fill="#2d3c6b"/></g><g><path d="" fill="#2d3c6b"/></g><g><path d="" fill="#2d3c6b"/></g></g><g><path d="m46 262.553 70-80h70l-70 80z" fill="#e9efff"/></g><g><path d="m146 222.553c0 1.799.131 3.566.361 5.302l-30.361 34.698h-70l70-80h70c-22.091 0-40 17.909-40 40z" fill="#dae2fe"/></g><g><path d="m186 262.553h70l70-80h-70z" fill="#e9efff"/></g><g><path d="m461.886 187.254-65.886 75.299h-70l70-80h55c4.292 0 8.152 1.812 10.886 4.701z" fill="#e9efff"/></g></g><g><circle cx="46" cy="182.553" fill="#dae2fe" r="30"/></g><g><circle cx="46" cy="182.553" fill="#2d3c6b" r="15"/></g></g><g><path d="m416 295.053h-320c-9.649 0-17.5 7.851-17.5 17.5v123.305c4.996 5.25 10.224 10.276 15.664 15.067h69.336v43c4.922 2.009 9.924 3.862 15 5.553v-48.554h70v60.957c2.491.075 4.991.118 7.5.118s5.009-.043 7.5-.118v-60.957h70v48.554c5.076-1.692 10.078-3.545 15-5.553v-43h69.336c5.44-4.791 10.669-9.817 15.664-15.067v-123.305c0-9.649-7.851-17.5-17.5-17.5zm2.5 140.872h-325v-123.372c0-1.378 1.122-2.5 2.5-2.5h320c1.378 0 2.5 1.122 2.5 2.5z" fill="#e9efff"/></g><g><path d="m263.5 511.882v-60.957h70v48.554c.001 0 .002 0 .002-.001 1.267-.422 2.53-.855 3.788-1.297.002-.001.004-.001.006-.002 3.778-1.329 7.513-2.747 11.204-4.253v-43h69.336c2.701-2.378 5.348-4.815 7.942-7.308.049-.047.097-.094.146-.141 1.245-1.198 2.477-2.41 3.697-3.635l.132-.132c1.263-1.27 2.512-2.553 3.746-3.85 0 0 .001-.001.001-.001v-42.611h-15v42.678h-325v-123.373c0-1.378 1.122-2.5 2.5-2.5h95.759c-1.568-4.872-2.836-9.878-3.777-15h-91.982c-9.649 0-17.5 7.851-17.5 17.5v123.305s.001.001.001.001c1.234 1.297 2.484 2.581 3.746 3.85.044.044.088.088.132.132 1.219 1.224 2.452 2.436 3.697 3.635.049.047.097.094.146.141 2.594 2.493 5.241 4.93 7.942 7.308h69.336v43c3.69 1.506 7.426 2.925 11.204 4.253.002.001.004.001.006.002 1.258.442 2.521.875 3.788 1.297.001 0 .002 0 .002.001v-48.554h70v60.957c1.238.037 2.478.066 3.72.087 1.258.019 2.517.031 3.78.031s2.522-.012 3.78-.031c1.242-.02 2.482-.049 3.72-.086z" fill="#dae2fe"/></g></g></svg>