<?xml version="1.0"?>
<svg xmlns="http://www.w3.org/2000/svg" xmlns:xlink="http://www.w3.org/1999/xlink" xmlns:svgjs="http://svgjs.com/svgjs" version="1.1" width="512" height="512" x="0" y="0" viewBox="0 0 64 64" style="enable-background:new 0 0 512 512" xml:space="preserve" class=""><g><path xmlns="http://www.w3.org/2000/svg" d="m50 48v-5a4.879 4.879 0 0 0 -3.922-4.784l-16.078-3.216a36.633 36.633 0 0 0 -28.8-14h-.2v33h24z" fill="#f4b43f" data-original="#f4b43f" style="" class=""/><path xmlns="http://www.w3.org/2000/svg" d="m50 50v-7a4.879 4.879 0 0 0 -3.922-4.784l-16.078-3.216a36.625 36.625 0 0 0 -26-13.879v4.879a24 24 0 0 0 24 24z" fill="#f7c445" data-original="#f7c445" style="" class=""/><path xmlns="http://www.w3.org/2000/svg" d="m1 50h20.683v4h-20.683" fill="#606160" data-original="#606160" style="" class=""/><path xmlns="http://www.w3.org/2000/svg" d="m41 54h9a3 3 0 0 0 3-3 3 3 0 0 0 -3-3h-6.606" fill="#606160" data-original="#606160" style="" class=""/><path xmlns="http://www.w3.org/2000/svg" d="m45 54a12 12 0 0 0 -24 0z" fill="#898989" data-original="#898989" style=""/><circle xmlns="http://www.w3.org/2000/svg" cx="33" cy="54" fill="#606160" r="8" data-original="#606160" style="" class=""/><path xmlns="http://www.w3.org/2000/svg" d="m33 46a7.96 7.96 0 0 0 -4.565 1.435 7.995 7.995 0 0 0 11.13 11.13 7.995 7.995 0 0 0 -6.565-12.565z" fill="#747574" data-original="#747574" style=""/><path xmlns="http://www.w3.org/2000/svg" d="m4 25v10h21a26.643 26.643 0 0 0 -20.806-10z" fill="#93d3f5" data-original="#93d3f5" style="" class=""/><path xmlns="http://www.w3.org/2000/svg" d="m4 38h4v2h-4z" fill="#606160" data-original="#606160" style="" class=""/><circle xmlns="http://www.w3.org/2000/svg" cx="33" cy="54" fill="#a0a0a0" r="3" data-original="#a0a0a0" style=""/><path xmlns="http://www.w3.org/2000/svg" d="m42.644 19h1.356a3.736 3.736 0 0 0 3.109-1.664l2.311-3.466a1.954 1.954 0 0 1 1.626-.87 1.954 1.954 0 0 1 1.954 1.954 3.455 3.455 0 0 1 -.58 1.916l-2.276 3.415a5.338 5.338 0 0 1 -3.144 2.215l-2 .5 4 4 3-4.5a12.4 12.4 0 0 1 2.386-2.653l3.832-3.189a2.818 2.818 0 0 1 1.8-.653 1.977 1.977 0 0 1 1.982 1.977 1.979 1.979 0 0 1 -.828 1.61l-4.272 3.052a11.232 11.232 0 0 0 -3.1 3.356l-1.8 3 2.048.512a2.893 2.893 0 0 1 2.174 2.488l.68 6.116a16.166 16.166 0 0 1 .1 1.773 2.111 2.111 0 0 1 -2.113 2.111 2.112 2.112 0 0 1 -2.1-1.878l-.789-7.122h-1.056a14.472 14.472 0 0 1 -12.944-8l-5.366 3.577a2.522 2.522 0 0 1 -1.4.422 2.518 2.518 0 0 1 -2-.979l-2.622-3.4a2.122 2.122 0 0 1 -.621-1.5 2.122 2.122 0 0 1 2.13-2.12 2.123 2.123 0 0 1 1.5.622l2.379 2.378 2-1.25 4.73-2.956" fill="#ffdab6" data-original="#ffdab6" style="" class=""/><g xmlns="http://www.w3.org/2000/svg" fill="#e15240"><path d="m18.419 20.814-7-5a1 1 0 0 1 .581-1.814h8.279l1.772-5.316a1 1 0 0 1 .878-.684 1.014 1.014 0 0 1 .966.551l3 6-1.79.894-1.92-3.841-1.236 3.71a1 1 0 0 1 -.949.686h-5.879l4.46 3.186z" fill="#e15240" data-original="#e15240" style="" class=""/><path d="m31 10h-2v-8a1 1 0 0 1 1.781-.625l3.5 4.369 7.277-3.639a1 1 0 0 1 1.4 1.211l-2 6-1.9-.632 1.237-3.71-5.848 2.926a1 1 0 0 1 -1.228-.27l-2.219-2.779z" fill="#e15240" data-original="#e15240" style="" class=""/><path d="m58.5 44.585h2v5.831h-2z" transform="matrix(.514 -.857 .857 .514 -11.843 74.082)" fill="#e15240" data-original="#e15240" style="" class=""/><path d="m56 48.86h2v7.28h-2z" transform="matrix(.962 -.275 .275 .962 -12.23 17.679)" fill="#e15240" data-original="#e15240" style="" class=""/></g><path xmlns="http://www.w3.org/2000/svg" d="m46.078 38.216-2.078-.416v2.2a4 4 0 0 0 4 4h2v-1a4.879 4.879 0 0 0 -3.922-4.784z" fill="#93d3f5" data-original="#93d3f5" style="" class=""/><path xmlns="http://www.w3.org/2000/svg" d="m6.222 25.087a10 10 0 0 0 9.778 7.913h7.218a26.632 26.632 0 0 0 -16.996-7.913z" fill="#bce3fa" data-original="#bce3fa" style="" class=""/><path xmlns="http://www.w3.org/2000/svg" d="m45 23 2-.5a5.305 5.305 0 0 0 1.521-.666l-1.99-3.824a3.737 3.737 0 0 1 -2.531.99h-1.356l-3.914.794-4.73 2.956-.537.336 1.385 4.014 3.152-2.1a14.465 14.465 0 0 0 7.413 6.893l2.907-5.573z" fill="#26b59b" data-original="#508c45" style="" class=""/><path xmlns="http://www.w3.org/2000/svg" d="m52.791 40.122a2.111 2.111 0 0 0 4.209-.233 16.166 16.166 0 0 0 -.1-1.773l-.678-6.116a2.88 2.88 0 0 0 -.543-1.379l-3.674 2.423z" fill="#ffdab6" data-original="#ffdab6" style="" class=""/><path xmlns="http://www.w3.org/2000/svg" d="m52 22.5-3 4.5-.68-.68-2.907 5.573a14.448 14.448 0 0 0 5.531 1.107h1.056l.005.044 3.674-2.423a2.88 2.88 0 0 0 -1.631-1.109l-2.048-.512 1.8-3a11.174 11.174 0 0 1 1.585-2.041l-2.585-2.485a12.724 12.724 0 0 0 -.8 1.026z" fill="#747574" data-original="#747574" style=""/><path xmlns="http://www.w3.org/2000/svg" d="m60.018 16.005a2.818 2.818 0 0 0 -1.8.653l-3.832 3.189a12.346 12.346 0 0 0 -1.59 1.627l2.589 2.485a11.165 11.165 0 0 1 1.515-1.315l4.274-3.053a1.977 1.977 0 0 0 -1.154-3.586z" fill="#ffdab6" data-original="#ffdab6" style="" class=""/><circle xmlns="http://www.w3.org/2000/svg" cx="40" cy="16" fill="#ffdab6" r="4" data-original="#ffdab6" style="" class=""/><path xmlns="http://www.w3.org/2000/svg" d="m43.629 14.339a3.992 3.992 0 1 0 -5.529 5.161l.9-4.5z" fill="#606160" data-original="#606160" style="" class=""/><script/></g></svg>
