<svg id="Layer_3" enable-background="new 0 0 64 64" height="512" viewBox="0 0 64 64" width="512" xmlns="http://www.w3.org/2000/svg"><g><path d="m23 17v-7h18v7h3v-6c0-2.209-1.791-4-4-4h-16c-2.209 0-4 1.791-4 4v6" fill="#61668c"/><path d="m58 17h-52c-2.209 0-4 1.791-4 4v32c0 2.209 1.791 4 4 4h52c2.209 0 4-1.791 4-4v-32c0-2.209-1.791-4-4-4z" fill="#2862be"/><path d="m6 21h52v32h-52z" fill="#3279ea"/><circle cx="32" cy="37" fill="#fff" r="12"/><path d="m41 35h-7v-7h-4v7h-7v4h7v7h4v-7h7z" fill="#d23f34"/></g></svg>