<?xml version="1.0"?>
<svg xmlns="http://www.w3.org/2000/svg" xmlns:xlink="http://www.w3.org/1999/xlink" xmlns:svgjs="http://svgjs.com/svgjs" version="1.1" width="512" height="512" x="0" y="0" viewBox="0 0 512 512" style="enable-background:new 0 0 512 512" xml:space="preserve" class=""><g><g xmlns="http://www.w3.org/2000/svg"><g><path clip-rule="evenodd" d="m360.31 300.372c23.645-22.691 42.165-49.989 42.165-111.994v-37.111c0-94.996-65.851-151.267-146.477-151.267-80.657 0-146.507 56.271-146.507 151.267v37.111c0 62.005 18.52 89.303 42.196 111.994-48.203 11.883-112.562 50.172-112.562 116.804v94.824h433.748v-94.823c-.001-66.633-64.39-104.921-112.563-116.805zm-119.443-19.829c-24.934 0-47.422-11.122-62.664-28.678-12.675-14.593-20.377-33.641-20.377-54.373v-33.225c0-2.08.112-4.09.375-6.079-.233-2.019-.345-4.09-.345-6.19v-21.93c0-11.072 6.941-11.914 22.275-17.932 10.168-3.359 22.6-5.845 36.178-7.449 12.594-1.492 26.141-2.243 39.689-2.243s27.095.751 39.709 2.243c13.558 1.603 26.02 4.09 36.188 7.449.842.355 1.664.639 2.446.964 13.609 5.165 19.829 6.515 19.829 16.968v21.93c0 2.192-.112 4.293-.345 6.363.233 1.928.345 3.887.345 5.906v33.225c0 19.068-6.505 36.655-17.404 50.7-15.212 19.647-39.009 32.352-65.638 32.352h-30.261zm93.068 161.435c-22.691 0-41.089-18.398-41.089-41.09 0-22.691 18.398-41.089 41.089-41.089s41.089 18.398 41.089 41.089c.001 22.692-18.398 41.09-41.089 41.09z" fill="#a5e1eb" fill-rule="evenodd" data-original="#fde588" style="" class=""/></g><g><path d="m255.998 338.265c-.097 0-.193-.002-.29-.006-12.949-.486-44.631-3.477-59.145-20.701-2.749-3.263-2.333-8.137.93-10.887 3.265-2.75 8.139-2.333 10.887.93 7.17 8.51 25.4 14.327 47.618 15.206 22.195-.879 40.428-6.699 47.625-15.215 2.754-3.259 7.627-3.669 10.889-.913 3.259 2.755 3.668 7.629.913 10.888-14.552 17.218-46.204 20.207-59.138 20.693-.096.003-.192.005-.289.005z" fill="#9dcdff" data-original="#fdd76f" style="" class=""/></g><g><path d="m263.721 280.543v231.315c0 .051 0 .091-.01.142h-15.425c-.01-.051-.01-.091-.01-.142v-231.315c0-4.262 3.45-7.723 7.723-7.723s7.722 3.461 7.722 7.723z" fill="#eff6ff" data-original="#eff6ff" style="" class=""/></g><g><path clip-rule="evenodd" d="m158.203 158.188c-.263 1.986-.38 4.001-.38 6.074v33.232c0 20.763 7.709 39.773 20.382 54.374 15.243 17.55 37.728 28.676 62.666 28.676h15.126 15.126c26.632 0 50.431-12.703 65.644-32.356 10.892-14.046 17.404-31.626 17.404-50.695v-33.232c0-2.015-.117-3.971-.35-5.899-3.123 27.947-192.581 27.889-195.618-.174z" fill="#74a5cf" fill-rule="evenodd" data-original="#a1d4ff" style="" class=""/></g><g><path clip-rule="evenodd" d="m402.472 188.383v-36.444h-27.099v35.539c0 55.338-22.981 84.598-41.845 111.523-2.278 3.241-8.176 13.579 6.337 17.58 48.182 11.885 105.913 50.812 105.913 106.88v88.539h27.099v-94.819c0-66.639-64.389-104.923-112.571-116.808 23.652-22.69 42.166-49.994 42.166-111.99z" fill="#9dcdff" fill-rule="evenodd" data-original="#fdd76f" style="" class=""/></g><g><path clip-rule="evenodd" d="m402.472 151.267c0-94.995-65.849-151.267-146.474-151.267-2.628 0-5.227.058-7.797.175 71.572 8.293 127.172 62.901 127.172 150.157v1.606h27.099z" fill="#9dcdff" fill-rule="evenodd" data-original="#fdd76f" style="" class=""/></g><g><path clip-rule="evenodd" d="m295.712 104.689c-12.615-1.489-26.164-2.249-39.714-2.249-13.549 0-27.099.759-39.685 2.249-13.579 1.606-26.018 4.088-36.18 7.447-15.331 6.016-22.281 6.862-22.281 17.93v21.872.058c0 2.103.117 4.176.35 6.191 3.037 28.063 26.602 45.993 52.942 45.701 21.843-.204 28.033-5.344 34.896-13.9 2.57-3.183 6.278-4.789 9.958-4.76 3.709-.029 7.417 1.577 9.987 4.76 6.862 8.556 13.053 13.696 34.896 13.9 26.281.292 49.817-17.58 52.942-45.526.234-2.073.35-4.176.35-6.366v-.058-21.872c0-10.454-6.22-11.798-19.828-16.966-.788-.321-1.606-.613-2.453-.964-10.162-3.358-22.631-5.84-36.18-7.447z" fill="#ffeee6" fill-rule="evenodd" data-original="#ffeee6" style="" class=""/></g><g><path d="m386.1 512v-55.599c0-4.265 3.461-7.726 7.726-7.726s7.726 3.461 7.726 7.726v55.599z" fill="#9dcdff" data-original="#fdd76f" style="" class=""/></g><g><path d="m106.179 512v-55.599c0-4.265 3.461-7.726 7.726-7.726s7.726 3.461 7.726 7.726v55.599z" fill="#9dcdff" data-original="#fdd76f" style="" class=""/></g><g><path d="m334.339 120.826c-1.563 0-3.14-.472-4.506-1.455-3.464-2.491-4.252-7.32-1.761-10.784l11.301-15.711c2.492-3.465 7.319-4.252 10.785-1.761 3.464 2.491 4.251 7.32 1.761 10.784l-11.301 15.711c-1.51 2.1-3.877 3.216-6.279 3.216z" fill="#9dcdff" data-original="#fdd76f" style="" class=""/></g><g><path d="m178.737 119.074c-2.401 0-4.769-1.116-6.279-3.215l-11.301-15.711c-2.491-3.464-1.703-8.292 1.761-10.784 3.463-2.491 8.293-1.704 10.785 1.761l11.301 15.711c2.491 3.464 1.703 8.292-1.761 10.784-1.365.982-2.943 1.454-4.506 1.454z" fill="#9dcdff" data-original="#fdd76f" style="" class=""/></g><g><path d="m255.998 110.167c-4.268 0-7.726-3.459-7.726-7.726v-23.332c0-4.267 3.459-7.726 7.726-7.726 4.268 0 7.726 3.459 7.726 7.726v23.332c0 4.267-3.458 7.726-7.726 7.726z" fill="#9dcdff" data-original="#fdd76f" style="" class=""/></g><g><path d="m216.306 112.418c-3.618 0-6.848-2.553-7.572-6.236l-4.322-21.96c-.825-4.187 1.901-8.249 6.089-9.073 4.196-.822 8.249 1.903 9.072 6.089l4.322 21.96c.825 4.187-1.901 8.249-6.089 9.073-.504.099-1.006.147-1.5.147z" fill="#9dcdff" data-original="#fdd76f" style="" class=""/></g><g><path d="m295.719 112.418c-.495 0-.996-.048-1.5-.147-4.187-.824-6.913-4.886-6.089-9.073l4.322-21.96c.824-4.187 4.886-6.91 9.072-6.089 4.187.824 6.913 4.886 6.089 9.073l-4.322 21.96c-.724 3.683-3.955 6.236-7.572 6.236z" fill="#9dcdff" data-original="#fdd76f" style="" class=""/></g><g><path d="m215.904 172.835c-4.268 0-7.726-3.459-7.726-7.726v-3.066c0-4.267 3.459-7.726 7.726-7.726s7.726 3.459 7.726 7.726v3.066c.001 4.267-3.458 7.726-7.726 7.726z" fill="#7e707d" data-original="#7e707d" style=""/></g><g><path d="m227.215 147.021c-.358 0-.719-.025-1.084-.076l-24.967-3.504c-4.226-.593-7.171-4.499-6.577-8.725.593-4.226 4.505-7.174 8.724-6.577l24.967 3.504c4.226.593 7.171 4.499 6.577 8.725-.54 3.861-3.849 6.653-7.64 6.653z" fill="#7e707d" data-original="#7e707d" style=""/></g><g><path d="m295.917 172.835c-4.268 0-7.726-3.459-7.726-7.726v-3.066c0-4.267 3.459-7.726 7.726-7.726s7.726 3.459 7.726 7.726v3.066c0 4.267-3.459 7.726-7.726 7.726z" fill="#7e707d" data-original="#7e707d" style=""/></g><g><path d="m284.635 147.021c-3.791 0-7.1-2.792-7.641-6.653-.594-4.226 2.351-8.132 6.577-8.725l24.967-3.504c4.221-.593 8.132 2.351 8.724 6.577.594 4.226-2.351 8.132-6.577 8.725l-24.967 3.504c-.364.051-.725.076-1.083.076z" fill="#7e707d" data-original="#7e707d" style=""/></g><g><path d="m402.472 159.665h-48.299c-4.268 0-7.726-3.459-7.726-7.726s3.459-7.726 7.726-7.726h48.299c4.268 0 7.726 3.459 7.726 7.726s-3.458 7.726-7.726 7.726z" fill="#74a5cf" data-original="#a1d4ff" style="" class=""/></g><g><path d="m157.852 159.665h-47.656c-4.268 0-7.726-3.459-7.726-7.726s3.459-7.726 7.726-7.726h47.656c4.268 0 7.726 3.459 7.726 7.726s-3.458 7.726-7.726 7.726z" fill="#74a5cf" data-original="#a1d4ff" style="" class=""/></g><g><path clip-rule="evenodd" d="m333.936 359.799c-22.689 0-41.086 18.397-41.086 41.087s18.397 41.087 41.086 41.087 41.086-18.397 41.086-41.087-18.396-41.087-41.086-41.087z" fill="#eff6ff" fill-rule="evenodd" data-original="#eff6ff" style="" class=""/></g><path d="m348.011 393.16h-6.348v-6.349c0-4.267-3.459-7.726-7.726-7.726s-7.726 3.459-7.726 7.726v6.349h-6.349c-4.268 0-7.726 3.459-7.726 7.726s3.459 7.726 7.726 7.726h6.349v6.319c0 4.267 3.459 7.726 7.726 7.726s7.726-3.459 7.726-7.726v-6.319h6.348c4.268 0 7.726-3.459 7.726-7.726s-3.458-7.726-7.726-7.726z" fill="#fe8d94" data-original="#fe8d94" style=""/><g><path clip-rule="evenodd" d="m353.822 158.363c.234-2.073.35-4.176.35-6.366v-.058-21.872c0-10.454-6.22-11.798-19.828-16.966l-2.453-.964c-.526-.146-1.022-.321-1.518-.496 2.541 2.19 3.767 5.023 3.767 9.695v21.872.058c0 2.19-.117 4.293-.35 6.366-3.095 27.946-26.632 45.818-52.913 45.526-4.176-.029-7.768-.263-10.921-.642 5.84 5.811 13.257 9.199 30.924 9.374 26.282.291 49.818-17.581 52.942-45.527z" fill="#ffdfcf" fill-rule="evenodd" data-original="#ffdfcf" style="" class=""/></g><g><path clip-rule="evenodd" d="m336.769 248.188c10.892-14.046 17.404-31.626 17.404-50.695v-33.232c0-2.015-.117-3.971-.35-5.899-1.694 14.981-9.198 27.07-19.886 35.013v5.986c0 19.04-6.483 36.649-17.375 50.695-11.827 15.243-28.792 26.311-48.241 30.487h2.803c26.632.001 50.431-12.702 65.645-32.355z" fill="#86beec" fill-rule="evenodd" data-original="#86beec" style="" class=""/></g><g><path d="m266.014 260.178h-20.061c-4.268 0-7.726-3.459-7.726-7.726s3.459-7.726 7.726-7.726h20.061c4.268 0 7.726 3.459 7.726 7.726s-3.458 7.726-7.726 7.726zm0-25.814h-20.061c-4.268 0-7.726-3.459-7.726-7.726s3.459-7.726 7.726-7.726h20.061c4.268 0 7.726 3.459 7.726 7.726.001 4.266-3.458 7.726-7.726 7.726z" fill="#86beec" data-original="#86beec" style="" class=""/></g><g><path d="m210.559 211.618c-16.362 0-32.114-6.317-43.304-17.391-11.046-10.933-17.13-25.931-17.13-42.23v-21.931c0-14.911 9.951-18.635 21.473-22.948 1.753-.656 3.656-1.368 5.712-2.175.131-.051.264-.1.398-.144 40.983-13.538 115.626-13.538 156.607 0 .134.044.268.093.398.144 2.056.807 3.96 1.519 5.712 2.175 11.522 4.312 21.473 8.037 21.473 22.948v21.931c0 16.299-6.084 31.297-17.13 42.23-11.189 11.073-26.943 17.391-43.311 17.391-.22 0-.439-.001-.658-.004-23.315-.218-32.048-5.826-40.843-16.792-.955-1.182-2.365-1.868-3.86-1.868-.033 0-.066.001-.1.001-.031.001-.066 0-.099-.001-1.478 0-2.878.687-3.847 1.887-8.78 10.947-17.513 16.555-40.835 16.773-.217.003-.437.004-.656.004zm-27.806-92.211c-2.061.807-3.973 1.523-5.737 2.183-11.437 4.28-11.437 4.597-11.437 8.475v21.931c0 12.318 4.339 23.123 12.547 31.246 8.314 8.228 20.112 12.922 32.437 12.922.168 0 .335-.001.502-.003 20.272-.19 23.911-4.727 28.949-11.008 3.936-4.876 9.712-7.653 15.883-7.653h.203c6.19 0 11.976 2.776 15.897 7.634 5.052 6.3 8.692 10.838 28.956 11.027.167.002.336.003.503.003 12.333 0 24.13-4.694 32.444-12.922 8.208-8.124 12.547-18.929 12.547-31.246v-21.931c0-3.878 0-4.195-11.437-8.475-1.766-.66-3.676-1.376-5.737-2.183-37.745-12.388-108.778-12.387-146.52 0z" fill="#eff6ff" data-original="#eff6ff" style="" class=""/></g></g><script/></g></svg>
