<?xml version="1.0"?>
<svg xmlns="http://www.w3.org/2000/svg" xmlns:xlink="http://www.w3.org/1999/xlink" xmlns:svgjs="http://svgjs.com/svgjs" version="1.1" width="512" height="512" x="0" y="0" viewBox="0 0 64 64" style="enable-background:new 0 0 512 512" xml:space="preserve" class=""><g><g xmlns="http://www.w3.org/2000/svg" id="syringe-medical-coronavirus-covid19-drug"><path d="M15,49h2v2a1,1,0,0,0,1,1h4a1,1,0,0,0,1-1V49h2a1,1,0,0,0,1-1V44a1,1,0,0,0-1-1H23V41a1,1,0,0,0-1-1H18a1,1,0,0,0-1,1v2H15a1,1,0,0,0-1,1v4A1,1,0,0,0,15,49Zm1-4h2a1,1,0,0,0,1-1V42h2v2a1,1,0,0,0,1,1h2v2H22a1,1,0,0,0-1,1v2H19V48a1,1,0,0,0-1-1H16Z" fill="#3b71fe" data-original="#000000" style=""/><path d="M26,28V26h1a1,1,0,0,0,1-1V21a3.009,3.009,0,0,0-3-3H15a3.009,3.009,0,0,0-3,3v4a1,1,0,0,0,1,1h1v2a7.008,7.008,0,0,0-7,7V59a3.009,3.009,0,0,0,3,3H30a3.009,3.009,0,0,0,3-3V35A7.008,7.008,0,0,0,26,28ZM14,21a1,1,0,0,1,1-1H25a1,1,0,0,1,1,1v3H14ZM31,59a1,1,0,0,1-1,1H10a1,1,0,0,1-1-1V56H31Zm0-5H9V38H31Zm0-18H9V35a5,5,0,0,1,5-5,2.006,2.006,0,0,0,2-2V26h8v2a2.006,2.006,0,0,0,2,2,5,5,0,0,1,5,5Z" fill="#3b71fe" data-original="#000000" style=""/><path d="M52,52a3,3,0,0,0,1-5.82V17a3.009,3.009,0,0,0-3-3H49V13a3.009,3.009,0,0,0-3-3V3a1,1,0,0,0-2,0v7a3.009,3.009,0,0,0-3,3v1H40a3.009,3.009,0,0,0-3,3V46.18A3,3,0,0,0,38,52h3v4H40a3,3,0,0,0,0,6H50a3,3,0,0,0,0-6H49V52ZM43,13a1,1,0,0,1,1-1h2a1,1,0,0,1,1,1v1H43Zm-4,4a1,1,0,0,1,1-1H50a1,1,0,0,1,1,1v1H48a1,1,0,0,0,0,2h3v2H46a1,1,0,0,0,0,2h5v2H48a1,1,0,0,0,0,2h3v2H46a1,1,0,0,0,0,2h5v2H48a1,1,0,0,0,0,2h3v2H46a1,1,0,0,0,0,2h5v6H39ZM50,58a1,1,0,0,1,0,2H40a1,1,0,0,1,0-2Zm-7-2V52h4v4Zm-5-6a1,1,0,0,1,0-2H52a1,1,0,0,1,0,2Z" fill="#3b71fe" data-original="#000000" style=""/></g><script/></g></svg>
